<svg width="373" height="189" viewBox="0 0 373 189" fill="none" xmlns="http://www.w3.org/2000/svg">
<path fill-rule="evenodd" clip-rule="evenodd" d="M90.5469 59.0615H78.4885C59.6795 59.0615 73.3443 18.9492 89.1796 18.9492H108.231C111.285 18.9492 116.671 19.5132 119.324 11.9274L123.424 0.143555H97.2987C83.151 0.143555 72.1383 5.14703 64.1806 13.5418C50.4346 27.908 45.7732 50.3452 49.0684 61.0787C52.2035 71.0067 60.7241 77.5433 74.0674 77.7047L84.4371 77.7859H97.2186L100.354 68.343C102.684 61.6439 97.4589 59.0615 90.5469 59.0615ZM237.326 42.4356L241.265 29.6025H199.225C192.232 29.6025 189.097 31.5396 187.891 35.5751L183.951 48.4082H225.993C232.986 48.4082 236.121 46.4711 237.326 42.4356ZM177.682 65.0341L173.743 77.866H215.783C222.696 77.866 225.912 75.93 227.118 71.8946L231.057 59.0615H189.015C182.104 59.0615 178.969 60.9986 177.682 65.0341ZM247.134 13.0567L251.072 0.22479H209.032C202.038 0.22479 198.903 2.16072 197.697 6.19622L193.758 19.0292H235.8C242.713 19.0292 245.846 17.0922 247.134 13.0567ZM183.63 15.6402C181.862 3.69507 175.512 0.22479 160.078 0.22479H131.944L115.546 48.4082H125.916C132.104 48.4082 135.239 48.4882 138.536 39.6106L145.368 18.9492H155.817C164.741 18.9492 162.73 30.1678 158.229 41.0626C154.21 50.6679 147.217 59.1416 138.776 59.1416H121.333C114.34 59.1416 111.125 61.0787 109.839 65.1142L105.498 77.9472H118.278L130.818 77.866C141.911 77.7859 150.995 76.9793 161.606 67.3739C172.859 57.1245 185.882 30.8131 183.63 15.6402ZM324.944 0.143555H300.588L277.679 24.5979C275.026 27.4229 272.293 30.2479 269.641 33.5568H269.399L280.814 0.143555H260.959L234.192 77.866H254.046L262.566 53.4116L271.408 45.9058L278.403 68.0204C280.572 74.8809 282.824 77.866 287.647 77.866H302.839L287.245 34.4447L324.944 0.143555Z" fill="#00B33C"/>
<g clip-path="url(#clip0_538_37)">
<path d="M65.5923 135.876L53.6758 152.057H118.623C121.907 152.057 121.866 153.293 120.261 155.478C118.631 157.688 115.904 161.51 114.241 163.761C113.398 164.898 111.874 166.969 116.919 166.969H143.48L151.35 156.28C156.232 149.659 151.776 135.884 134.323 135.884L65.5923 135.876Z" fill="white"/>
<path d="M48.8537 188.592L72.7933 156.084H102.499C105.783 156.084 105.742 157.328 104.137 159.505L98.076 167.755C97.2324 168.892 95.7091 170.963 100.754 170.963H140.541C137.241 175.497 126.496 188.592 107.232 188.592H48.8537ZM185.939 170.955L172.958 188.592H138.715L151.696 170.955H185.939ZM238.388 166.961H154.645L177.544 135.876H211.77L198.65 153.702H213.924L227.061 135.876H261.288L238.388 166.961ZM235.448 170.955L222.467 188.592H188.24L201.222 170.955H235.448ZM0 177.912H50.4344L47.6825 181.652H0V177.912ZM0 170.955H55.5614L52.8013 174.695H0V170.955ZM0 184.868H45.3156L42.5719 188.592H0V184.868ZM373 181.652H322.746L325.506 177.912H373V181.652ZM373 188.592H317.643L320.379 184.868H373V188.592ZM330.625 170.955H373V174.703H327.873L330.625 170.955ZM308.692 135.876L285.792 166.961H249.518L272.434 135.876H308.692ZM246.586 170.955C246.586 170.955 244.088 174.376 242.868 176.013C238.577 181.824 242.369 188.584 256.398 188.584H311.37L324.351 170.955H246.586Z" fill="white"/>
</g>
<defs>
<clipPath id="clip0_538_37">
<rect width="373" height="52.6319" fill="white" transform="translate(0 135.918)"/>
</clipPath>
</defs>
</svg>
