<svg width="169" height="169" viewBox="0 0 169 169" fill="none" xmlns="http://www.w3.org/2000/svg">
<mask id="path-1-inside-1_112_13" fill="white">
<path d="M9.33021 0.880209L8.45 1.72521V69.8885V138.017H5.10521C2.00687 138.017 1.65479 138.087 0.880208 138.897L0 139.742V153.508V167.275L0.880208 168.12L1.72521 169H11.2667H20.8081L21.6531 168.12C22.5333 167.275 22.5333 167.169 22.5333 161.078V154.917H47.8833H73.2333V161.078C73.2333 167.169 73.2333 167.275 74.1135 168.12L74.9585 169H84.5H94.0415L94.8865 168.12C95.7667 167.275 95.7667 167.169 95.7667 161.078V154.917H121.117H146.467V161.078C146.467 167.169 146.467 167.275 147.347 168.12L148.192 169H157.733H167.275L168.12 168.12L169 167.275V153.508V139.742L168.12 138.897C167.345 138.087 166.993 138.017 163.895 138.017H160.55V69.8885V1.72521L159.67 0.880209L158.825 2.38419e-07H84.5H10.1752L9.33021 0.880209ZM36.6167 16.1958C36.6167 23.1671 36.7575 27.0048 37.004 27.5681C37.3912 28.4483 38.6587 29.2229 39.6094 29.2229C39.891 29.2229 41.8627 28.0258 44.0104 26.5823L47.8833 23.9417L51.7562 26.5823C53.904 28.0258 55.8756 29.2229 56.1573 29.2229C57.1079 29.2229 58.3754 28.4483 58.7627 27.5681C59.0092 27.0048 59.15 23.1671 59.15 16.1958V5.63333H70.4167H81.6833V36.6167V67.6H47.8833H14.0833V36.6167V5.63333H25.35H36.6167V16.1958ZM53.5167 13.2031C53.5167 21.794 53.8335 21.2306 50.524 18.8717C49.5733 18.1675 48.3762 17.6042 47.8833 17.6042C47.3904 17.6042 46.1933 18.1675 45.2427 18.8717C41.9331 21.2306 42.25 21.794 42.25 13.2031V5.63333H47.8833H53.5167V13.2031ZM109.85 16.1958C109.85 23.1671 109.991 27.0048 110.237 27.5681C110.625 28.4483 111.892 29.2229 112.843 29.2229C113.124 29.2229 115.096 28.0258 117.244 26.5823L121.117 23.9417L124.99 26.5823C127.137 28.0258 129.109 29.2229 129.391 29.2229C130.341 29.2229 131.609 28.4483 131.996 27.5681C132.242 27.0048 132.383 23.1671 132.383 16.1958V5.63333H143.65H154.917V36.6167V67.6H121.117H87.3167V36.6167V5.63333H98.5833H109.85V16.1958ZM126.75 13.2031C126.75 21.794 127.067 21.2306 123.757 18.8717C122.807 18.1675 121.61 17.6042 121.117 17.6042C120.624 17.6042 119.427 18.1675 118.476 18.8717C115.166 21.2306 115.483 21.794 115.483 13.2031V5.63333H121.117H126.75V13.2031ZM36.6167 84.4648C36.6167 95.6258 36.6167 95.7315 37.4265 96.6469C38.7996 98.2665 39.9615 97.9848 44.1865 94.9569L47.9185 92.2458L51.6154 94.9569C55.8052 97.9848 56.9671 98.2665 58.3754 96.6469C59.15 95.7315 59.15 95.6258 59.15 84.4648V73.2333H70.4167H81.6833V105.625V138.017H47.8833H14.0833V105.625V73.2333H25.35H36.6167V84.4648ZM53.5167 81.3313V89.4644L51.6858 88.0913C48.0594 85.3802 47.7425 85.3802 44.3977 87.8448L42.25 89.4292V81.3313V73.2333H47.8833H53.5167V81.3313ZM109.85 84.4648C109.85 95.6258 109.85 95.7315 110.66 96.6469C112.033 98.2665 113.195 97.9848 117.42 94.9569L121.152 92.2458L124.849 94.9569C129.039 97.9848 130.2 98.2665 131.609 96.6469C132.383 95.7315 132.383 95.6258 132.383 84.4648V73.2333H143.65H154.917V105.625V138.017H121.117H87.3167V105.625V73.2333H98.5833H109.85V84.4648ZM126.75 81.3313V89.4644L124.919 88.0913C121.293 85.3802 120.976 85.3802 117.631 87.8448L115.483 89.4292V81.3313V73.2333H121.117H126.75V81.3313ZM163.367 153.508V163.367H157.733H152.1V157.205C152.1 151.114 152.1 151.009 151.22 150.164L150.375 149.283H121.117H91.8585L91.0135 150.164C90.1333 151.009 90.1333 151.114 90.1333 157.205V163.367H84.5H78.8667V157.205C78.8667 151.114 78.8667 151.009 77.9865 150.164L77.1415 149.283H47.8833H18.6252L17.7802 150.164C16.9 151.009 16.9 151.114 16.9 157.205V163.367H11.2667H5.63333V153.508V143.65H84.5H163.367V153.508Z"/>
</mask>
<path d="M9.33021 0.880209L8.45 1.72521V69.8885V138.017H5.10521C2.00687 138.017 1.65479 138.087 0.880208 138.897L0 139.742V153.508V167.275L0.880208 168.12L1.72521 169H11.2667H20.8081L21.6531 168.12C22.5333 167.275 22.5333 167.169 22.5333 161.078V154.917H47.8833H73.2333V161.078C73.2333 167.169 73.2333 167.275 74.1135 168.12L74.9585 169H84.5H94.0415L94.8865 168.12C95.7667 167.275 95.7667 167.169 95.7667 161.078V154.917H121.117H146.467V161.078C146.467 167.169 146.467 167.275 147.347 168.12L148.192 169H157.733H167.275L168.12 168.12L169 167.275V153.508V139.742L168.12 138.897C167.345 138.087 166.993 138.017 163.895 138.017H160.55V69.8885V1.72521L159.67 0.880209L158.825 2.38419e-07H84.5H10.1752L9.33021 0.880209ZM36.6167 16.1958C36.6167 23.1671 36.7575 27.0048 37.004 27.5681C37.3912 28.4483 38.6587 29.2229 39.6094 29.2229C39.891 29.2229 41.8627 28.0258 44.0104 26.5823L47.8833 23.9417L51.7562 26.5823C53.904 28.0258 55.8756 29.2229 56.1573 29.2229C57.1079 29.2229 58.3754 28.4483 58.7627 27.5681C59.0092 27.0048 59.15 23.1671 59.15 16.1958V5.63333H70.4167H81.6833V36.6167V67.6H47.8833H14.0833V36.6167V5.63333H25.35H36.6167V16.1958ZM53.5167 13.2031C53.5167 21.794 53.8335 21.2306 50.524 18.8717C49.5733 18.1675 48.3762 17.6042 47.8833 17.6042C47.3904 17.6042 46.1933 18.1675 45.2427 18.8717C41.9331 21.2306 42.25 21.794 42.25 13.2031V5.63333H47.8833H53.5167V13.2031ZM109.85 16.1958C109.85 23.1671 109.991 27.0048 110.237 27.5681C110.625 28.4483 111.892 29.2229 112.843 29.2229C113.124 29.2229 115.096 28.0258 117.244 26.5823L121.117 23.9417L124.99 26.5823C127.137 28.0258 129.109 29.2229 129.391 29.2229C130.341 29.2229 131.609 28.4483 131.996 27.5681C132.242 27.0048 132.383 23.1671 132.383 16.1958V5.63333H143.65H154.917V36.6167V67.6H121.117H87.3167V36.6167V5.63333H98.5833H109.85V16.1958ZM126.75 13.2031C126.75 21.794 127.067 21.2306 123.757 18.8717C122.807 18.1675 121.61 17.6042 121.117 17.6042C120.624 17.6042 119.427 18.1675 118.476 18.8717C115.166 21.2306 115.483 21.794 115.483 13.2031V5.63333H121.117H126.75V13.2031ZM36.6167 84.4648C36.6167 95.6258 36.6167 95.7315 37.4265 96.6469C38.7996 98.2665 39.9615 97.9848 44.1865 94.9569L47.9185 92.2458L51.6154 94.9569C55.8052 97.9848 56.9671 98.2665 58.3754 96.6469C59.15 95.7315 59.15 95.6258 59.15 84.4648V73.2333H70.4167H81.6833V105.625V138.017H47.8833H14.0833V105.625V73.2333H25.35H36.6167V84.4648ZM53.5167 81.3313V89.4644L51.6858 88.0913C48.0594 85.3802 47.7425 85.3802 44.3977 87.8448L42.25 89.4292V81.3313V73.2333H47.8833H53.5167V81.3313ZM109.85 84.4648C109.85 95.6258 109.85 95.7315 110.66 96.6469C112.033 98.2665 113.195 97.9848 117.42 94.9569L121.152 92.2458L124.849 94.9569C129.039 97.9848 130.2 98.2665 131.609 96.6469C132.383 95.7315 132.383 95.6258 132.383 84.4648V73.2333H143.65H154.917V105.625V138.017H121.117H87.3167V105.625V73.2333H98.5833H109.85V84.4648ZM126.75 81.3313V89.4644L124.919 88.0913C121.293 85.3802 120.976 85.3802 117.631 87.8448L115.483 89.4292V81.3313V73.2333H121.117H126.75V81.3313ZM163.367 153.508V163.367H157.733H152.1V157.205C152.1 151.114 152.1 151.009 151.22 150.164L150.375 149.283H121.117H91.8585L91.0135 150.164C90.1333 151.009 90.1333 151.114 90.1333 157.205V163.367H84.5H78.8667V157.205C78.8667 151.114 78.8667 151.009 77.9865 150.164L77.1415 149.283H47.8833H18.6252L17.7802 150.164C16.9 151.009 16.9 151.114 16.9 157.205V163.367H11.2667H5.63333V153.508V143.65H84.5H163.367V153.508Z" fill="#FCEE03" stroke="#FCEE03" stroke-width="6" mask="url(#path-1-inside-1_112_13)"/>
</svg>
