<svg width="187" height="181" viewBox="0 0 187 181" fill="none" xmlns="http://www.w3.org/2000/svg">
<path d="M0 4.38584V8.772H10.5999C16.4481 8.772 21.1998 8.8451 21.1998 8.95475C21.1998 9.79544 44.3733 95.8739 53.8767 130.196L57.276 142.55L55.5946 143.61C51.976 145.949 48.8692 150.189 47.5168 154.575C46.6395 157.39 46.5299 162.617 47.334 165.541C49.0519 171.974 54.425 177.566 60.858 179.54C64.1111 180.563 69.0455 180.636 72.1889 179.686C80.815 177.128 86.6633 169.452 86.7729 160.679C86.7729 157.024 86.1881 154.429 84.5798 151.213L83.3736 148.764H108.777C122.776 148.764 134.143 148.873 134.07 149.056C134.034 149.202 133.522 150.226 132.974 151.322C127.308 162.726 133.486 176.36 145.84 179.869C148.289 180.563 153.662 180.454 156.257 179.686C161.849 178.041 166.236 174.386 168.794 169.342C172.778 161.301 171.28 152.346 164.81 145.876C162.142 143.171 157.792 140.905 154.247 140.357C152.748 140.138 135.971 139.991 108.886 139.991H65.8655L65.2807 137.725C64.9883 136.446 64.3304 134.033 63.8552 132.316L62.978 129.209L107.607 129.318C139.59 129.391 152.858 129.318 154.393 129.026C159.108 128.112 164.006 124.53 166.236 120.363C167.807 117.403 187.289 44.9944 186.997 43.1668C186.887 42.5089 186.522 41.5951 186.156 41.193C184.548 39.402 188.13 39.4751 110.824 39.4751H38.4886L33.6272 21.4553C30.959 11.5865 28.5101 2.96033 28.1811 2.37551C26.9018 0.0727755 26.3901 -0.000327228 12.5371 -0.000327228H0V4.38584ZM176.726 49.2343C176.616 49.8192 172.559 65.0611 167.734 83.154C158.048 119.559 158.56 118.097 154.978 119.961L153.077 120.985H109.142C67.4007 120.985 65.1711 120.948 63.7821 120.29C61.9911 119.486 60.0173 117.585 59.396 116.05C59.1401 115.465 57.0932 108.192 54.827 99.9676C51.0622 86.1512 41.1934 50.3674 40.7182 48.8688C40.5355 48.284 43.9347 48.2475 108.74 48.2475H176.982L176.726 49.2343ZM71.7869 150.006C74.0896 151.14 76.1365 153.259 77.2696 155.672C78.4392 158.267 78.3661 162.946 77.0503 165.395C73.4682 172.193 64.6959 173.911 59.1766 168.94C50.9891 161.593 56.4353 148.252 67.3276 148.873C69.009 148.983 70.3979 149.349 71.7869 150.006ZM155.965 149.97C159.4 151.724 161.557 154.575 162.215 158.267C163.531 165.358 158.158 171.791 150.957 171.791C146.425 171.791 142.696 169.452 140.65 165.321C139.663 163.275 139.48 162.507 139.48 160.314C139.48 155.014 143.025 150.445 148.216 149.093C150.19 148.544 154.027 149.02 155.965 149.97Z" fill="#FCEE03"/>
</svg>
